HIERARCHY
ROOT Hips
{
	OFFSET -17.527330 0.493051 -2.130291
	CHANNELS 6 Xposition Yposition Zposition Zrotation Yrotation Xrotation
	JOINT LHipJoint
	{
		OFFSET 7.165796 15.012241 8.802215
		CHANNELS 3 Zrotation Yrotation Xrotation
		JOINT LeftUpLeg
		{
			OFFSET 14.394258 15.819099 3.851548
			CHANNELS 3 Zrotation Yrotation Xrotation
			JOINT LeftLeg
			{
				OFFSET 19.539415 21.688848 21.432104
				CHANNELS 3 Zrotation Yrotation Xrotation
				JOINT LeftFoot
				{
					OFFSET 15.336151 7.591710 18.691847
					CHANNELS 3 Zrotation Yrotation Xrotation
					JOINT LeftToeBase
					{
						OFFSET 19.216602 6.851737 8.567566
						CHANNELS 3 Zrotation Yrotation Xrotation
						End Site
						{
							OFFSET 0.000000 0.000000 0.000000
						}
					}
				}
			}
		}
	}
	JOINT RHipJoint
	{
		OFFSET 11.429838 15.364286 4.984079
		CHANNELS 3 Zrotation Yrotation Xrotation
		JOINT RightUpLeg
		{
			OFFSET 18.497246 16.188143 11.991875
			CHANNELS 3 Zrotation Yrotation Xrotation
			JOINT RightLeg
			{
				OFFSET 4.785039 17.553329 29.028822
				CHANNELS 3 Zrotation Yrotation Xrotation
				JOINT RightFoot
				{
					OFFSET 16.206940 8.166688 19.414497
					CHANNELS 3 Zrotation Yrotation Xrotation
					JOINT RightToeBase
					{
						OFFSET 43.006420 30.649660 0.061265
						CHANNELS 3 Zrotation Yrotation Xrotation
						End Site
						{
							OFFSET 0.000000 0.000000 0.000000
						}
					}
				}
			}
		}
	}
	JOINT LowerBack
	{
		OFFSET 15.329208 17.582581 32.815605
		CHANNELS 3 Zrotation Yrotation Xrotation
		JOINT Spine
		{
			OFFSET 34.122337 39.939648 55.972176
			CHANNELS 3 Zrotation Yrotation Xrotation
			JOINT Spine1
			{
				OFFSET 55.257301 101.975571 46.817669
				CHANNELS 3 Zrotation Yrotation Xrotation
				JOINT Neck
				{
					OFFSET 50.898033 76.396103 35.027592
					CHANNELS 3 Zrotation Yrotation Xrotation
					JOINT Neck1
					{
						OFFSET -5.523933 -80.783165 -78.596130
						CHANNELS 3 Zrotation Yrotation Xrotation
						JOINT Head
						{
							OFFSET 11.544554 33.455334 42.023296
							CHANNELS 3 Zrotation Yrotation Xrotation
							End Site
							{
								OFFSET 0.000000 0.000000 0.000000
							}
						}
					}
				}
				JOINT LeftShoulder
				{
					OFFSET 47.782925 27.063990 29.202358
					CHANNELS 3 Zrotation Yrotation Xrotation
					JOINT LeftArm
					{
						OFFSET 31.782480 18.776600 5.819080
						CHANNELS 3 Zrotation Yrotation Xrotation
						JOINT LeftForeArm
						{
							OFFSET 27.930096 51.770950 66.547546
							CHANNELS 3 Zrotation Yrotation Xrotation
							JOINT LeftHand
							{
								OFFSET 87.604454 50.549202 71.252350
								CHANNELS 3 Zrotation Yrotation Xrotation
								JOINT LeftFingerBase
								{
									OFFSET 89.836304 86.547897 87.954880
									CHANNELS 3 Zrotation Yrotation Xrotation
									JOINT LeftHandIndex1
									{
										OFFSET 138.751419 106.016083 85.878845
										CHANNELS 3 Zrotation Yrotation Xrotation
										End Site
										{
											OFFSET 0.000000 0.000000 0.000000
										}
									}
								}
								JOINT LThumb
								{
									OFFSET 70.200554 64.571480 56.025784
									CHANNELS 3 Zrotation Yrotation Xrotation
									End Site
									{
										OFFSET 0.000000 0.000000 0.000000
									}
								}
							}
						}
					}
				}
				JOINT RightShoulder
				{
					OFFSET 43.349159 58.391788 78.662491
					CHANNELS 3 Zrotation Yrotation Xrotation
					JOINT RightArm
					{
						OFFSET 45.906864 28.827124 45.382893
						CHANNELS 3 Zrotation Yrotation Xrotation
						JOINT RightForeArm
						{
							OFFSET 101.851685 127.592659 93.627930
							CHANNELS 3 Zrotation Yrotation Xrotation
							JOINT RightHand
							{
								OFFSET 115.004257 94.488968 120.451447
								CHANNELS 3 Zrotation Yrotation Xrotation
								JOINT RightFingerBase
								{
									OFFSET 265.581360 128.539505 240.026306
									CHANNELS 3 Zrotation Yrotation Xrotation
									JOINT RightHandIndex1
									{
										OFFSET 9.347649 345.942108 161.700699
										CHANNELS 3 Zrotation Yrotation Xrotation
										End Site
										{
											OFFSET 0.000000 0.000000 0.000000
										}
									}
								}
								JOINT RThumb
								{
									OFFSET 508.829712 648.384949 2166.185303
									CHANNELS 3 Zrotation Yrotation Xrotation
									End Site
									{
										OFFSET 962.334839 681.987549 -228.274948
									}
								}
							}
						}
					}
				}
			}
		}
	}
}
MOTION
Frames: 4
Frame Time: 0.008333
-18.801897 17.624296 -117.248619 -27.780470 -3.422155 -23.406191 -34.409000 -36.746201 -53.828888 -94.969269 -106.520836 -108.979782 -19.200615 -8.828315 -1.096209 -9.056849 -69.330856 -49.389053 -2.603958 -27.188114 -158.339294 -35.858883 -17.486115 -24.950163 -115.954834 -87.986382 -174.463013 -24.951973 -55.252701 -88.780380 -38.732029 -107.106705 -264.555450 -14.306476 -54.809696 -239.412964 -77.058922 -48.555534 -90.379066 -54.539883 -9.740586 -95.495171 72.579956 -41.819752 -205.851044 -172.192886 -250.228424 -257.202393 -16.979511 -197.267441 -143.846756 -91.283104 -66.934097 -94.979614 -87.822670 -58.020332 -18.447332 -214.439728 -103.071144 -675.839966 -260.533722 -312.611389 74.291473 -24.286142 -35.580387 -1423.974854 -190.314407 -936.798401 -406.303802 -7.125000 0.000000 0.000000 -1484.627075 -928.011902 -1623.995117 -206.956772 -143.589523 -33.829273 87.047035 -525.771301 -1308.312500 -951.656677 178.552765 -396.570709 -45.496803 -156.460480 -1842.499146 -15618.166992 -820.270386 -15377.663086 7.125000 0.000000 0.000000 -59173.367188 -39974.804688 13987.438477
-4.070564 18.236130 -70.366493 5.985463 22.775599 63.637280 77.167015 19.278233 31.481802 30.565420 -5.753298 -16.415464 4.391887 17.655390 38.432018 -8.603828 -31.988503 20.288658 7.956212 21.130686 49.371235 21.810303 9.646669 41.516541 134.742386 67.613556 35.931923 30.329849 12.008843 86.442291 -1.595454 72.671562 -35.448956 2.281094 39.076839 104.456902 12.204545 13.665472 26.477551 14.985025 128.334808 13.999174 141.440323 -49.556828 -142.159256 38.552116 -30.847443 132.764618 114.072990 49.906582 195.895493 -10.632152 -1.492189 2.899022 3.980016 9.043985 2.040174 -34.581596 352.027100 260.718109 679.791626 28.712273 323.991608 -24.639416 11.705390 107.425911 913.117859 583.285095 700.312866 -7.125000 0.000000 0.000000 -645.578674 -152.802124 -1009.801453 77.480652 83.736916 12.887941 544.949463 83.970581 1219.861572 -602.258850 636.251892 -103.462311 17.671005 5.029642 819.038330 -3047.958984 5052.782715 421.969330 7.125000 0.000000 0.000000 27032.437500 56323.265625 -29723.320312
22.102396 20.432367 119.848083 17.669554 -2.480942 71.496170 74.866722 28.653109 24.236660 28.780741 56.302834 100.041473 46.244026 61.194748 192.461060 22.164814 124.129257 89.457024 14.611493 28.594204 84.514183 35.549511 10.105389 47.355072 190.449341 100.937820 162.761307 40.037304 52.296501 117.523270 20.636593 68.580261 178.398804 24.459757 128.196915 403.775604 131.034943 67.746490 154.868729 40.908188 187.451797 99.987831 231.269897 94.488075 27.984154 238.604874 165.394241 439.759125 136.238434 140.354553 273.079315 37.200867 52.328720 83.006378 87.949371 62.883774 33.920498 82.149323 507.335907 526.404480 861.626221 348.567322 1132.682739 25.834131 94.795448 677.149719 607.102417 468.682343 660.882019 -7.125000 0.000000 0.000000 221.156738 661.887146 -61.639809 119.967842 166.351624 43.502647 1418.318481 808.319458 3200.591553 521.457764 1069.349487 714.381592 104.565773 188.753860 3560.310303 16198.603516 9265.702148 9301.254883 7.125000 0.000000 0.000000 -7157.860352 -3654.303223 980.472290
3.086384 18.402914 146.210785 2.374413 -9.385221 67.908730 53.228741 21.114895 11.306133 21.481524 28.255766 3.024658 16.942461 24.085686 69.753326 14.759696 128.113586 85.716980 14.396309 39.766777 117.465828 22.332668 -8.584673 28.996120 168.424179 97.416740 139.305176 28.634724 54.062523 209.136612 55.240704 99.744888 284.217621 22.716532 63.939945 360.015381 161.864838 98.391441 186.549896 28.815659 131.378296 104.835793 256.137115 133.549561 33.462090 116.352875 62.902901 372.168945 104.401131 198.102646 310.645081 72.555298 74.468948 129.303497 135.076691 84.181946 40.679482 66.610977 481.577179 523.311890 535.749146 80.753204 675.781494 12.214903 92.990593 1669.062134 811.761353 1228.937622 969.208801 -7.125000 0.000000 0.000000 1230.390991 1244.656494 1120.010986 192.823715 203.232727 13.455030 828.608276 119.057335 2281.231934 1024.508545 1281.770630 1297.151978 118.909676 77.166061 -657.462280 4421.830078 3092.096436 4833.216797 7.125000 0.000000 0.000000 44240.085938 -17937.455078 -69506.343750
